<?xml version="1.0" encoding="UTF-8" standalone="no"?>
<!DOCTYPE svg PUBLIC "-//W3C//DTD SVG 1.1//EN" "http://www.w3.org/Graphics/SVG/1.1/DTD/svg11.dtd">
<svg width="100%" height="100%" viewBox="0 0 193 83" version="1.1" xmlns="http://www.w3.org/2000/svg" xmlns:xlink="http://www.w3.org/1999/xlink" xml:space="preserve" xmlns:serif="http://www.serif.com/" style="fill-rule:evenodd;clip-rule:evenodd;stroke-linejoin:round;stroke-miterlimit:2;">
    <g transform="matrix(1,0,0,1,-3299,-491)">
        <g transform="matrix(2.20588,0,0,2.20588,3157.74,0)">
            <g transform="matrix(0.0715734,0,0,0.0715734,54.1919,187.649)">
                <path d="M563.437,968.986C559.737,964.238 553.567,962.571 548.695,962.571C535.062,962.571 525.132,971.515 525.132,985.518C525.132,999.52 535.062,1008.46 548.695,1008.46C554.679,1008.46 560.847,1006.06 564.487,1000.88L556.467,994.893C554.494,997.855 551.347,999.581 547.462,999.581C540.492,999.581 535.125,993.66 535.125,985.518C535.125,977.375 540.492,971.453 547.77,971.453C551.347,971.453 554.124,972.75 556.035,975.031L563.437,968.986ZM464.064,968.986C460.364,964.238 454.197,962.571 449.322,962.571C435.692,962.571 425.759,971.515 425.759,985.518C425.759,999.52 435.692,1008.46 449.322,1008.46C455.307,1008.46 461.474,1006.06 465.114,1000.88L457.094,994.893C455.122,997.855 451.974,999.581 448.089,999.581C441.119,999.581 435.752,993.66 435.752,985.518C435.752,977.375 441.119,971.453 448.397,971.453C451.974,971.453 454.752,972.75 456.664,975.031L464.064,968.986ZM1262.99,985.518C1262.99,999.52 1272.92,1008.46 1286.56,1008.46C1300.19,1008.46 1310.12,999.52 1310.12,985.518C1310.12,971.515 1300.19,962.571 1286.56,962.571C1272.92,962.571 1262.99,971.515 1262.99,985.518ZM567.385,985.518C567.385,999.52 577.317,1008.46 590.95,1008.46C604.58,1008.46 614.512,999.52 614.512,985.518C614.512,971.515 604.58,962.571 590.95,962.571C577.317,962.571 567.385,971.515 567.385,985.518ZM855.201,985.518C855.201,999.52 865.133,1008.46 878.766,1008.46C892.398,1008.46 902.328,999.52 902.328,985.518C902.328,971.515 892.398,962.571 878.766,962.571C865.133,962.571 855.201,971.515 855.201,985.518ZM908.866,1007.35L918.488,1007.35L918.488,976.265L918.613,976.265L937.673,1007.35L950.256,1007.35L950.256,963.683L940.633,963.683L940.633,994.03L940.511,994.03L921.943,963.683L908.866,963.683L908.866,1007.35ZM1017.74,1007.35L1048.52,1007.35L1048.52,998.471L1027.36,998.471L1027.36,989.588L1046.3,989.588L1046.3,980.706L1027.36,980.706L1027.36,972.565L1047.41,972.565L1047.41,963.683L1017.74,963.683L1017.74,1007.35ZM977.396,1007.35L987.021,1007.35L987.021,989.898L991.769,989.898L1000.9,1007.35L1012.43,1007.35L1001.33,988.91C1007.5,987.8 1010.77,983.05 1010.77,976.943C1010.77,966.765 1003.24,963.683 994.298,963.683L977.396,963.683L977.396,1007.35ZM1069.37,1007.35L1077.08,1007.35L1095.09,963.683L1084.79,963.683L1073.81,992.303L1073.69,992.303L1062.89,963.683L1051.91,963.683L1069.37,1007.35ZM1316.66,1007.35L1326.28,1007.35L1326.28,976.265L1326.4,976.265L1345.46,1007.35L1358.05,1007.35L1358.05,963.683L1348.42,963.683L1348.42,994.03L1348.3,994.03L1329.74,963.683L1316.66,963.683L1316.66,1007.35ZM228.557,1007.35L259.336,1007.35L259.336,998.471L238.179,998.471L238.179,989.588L257.116,989.588L257.116,980.706L238.179,980.706L238.179,972.565L258.226,972.565L258.226,963.683L228.557,963.683L228.557,1007.35ZM285.306,1007.35L301.036,1007.35C314.051,1007.35 325.586,999.766 325.586,985.641C325.586,969.665 313.804,963.683 299.739,963.683L285.306,963.683L285.306,1007.35ZM621.05,1007.35L630.672,1007.35L630.672,976.265L630.797,976.265L649.857,1007.35L662.44,1007.35L662.44,963.683L652.817,963.683L652.817,994.03L652.695,994.03L634.127,963.683L621.05,963.683L621.05,1007.35ZM1220.12,1007.35L1229.74,1007.35L1229.74,972.193L1242.2,972.193L1242.2,963.683L1207.66,963.683L1207.66,972.193L1220.12,972.193L1220.12,1007.35ZM327.621,1007.35L338.231,1007.35L341.869,998.101L358.834,998.101L362.596,1007.35L373.452,1007.35L354.454,963.683L346.496,963.683L327.621,1007.35ZM684.46,1007.35L692.172,1007.35L710.183,963.683L699.883,963.683L688.903,992.303L688.78,992.303L677.985,963.683L667.005,963.683L684.46,1007.35ZM753.608,1007.35L763.23,1007.35L763.23,976.265L763.355,976.265L782.415,1007.35L794.998,1007.35L794.998,963.683L785.375,963.683L785.375,994.03L785.253,994.03L766.685,963.683L753.608,963.683L753.608,1007.35ZM181.369,1007.35L190.991,1007.35L190.991,988.478L209.682,988.478L209.682,1007.35L219.304,1007.35L219.304,963.683L209.682,963.683L209.682,979.966L190.991,979.966L190.991,963.683L181.369,963.683L181.369,1007.35ZM377.832,1007.35L387.454,1007.35L387.454,976.265L387.577,976.265L406.637,1007.35L419.222,1007.35L419.222,963.683L409.599,963.683L409.599,994.03L409.474,994.03L390.909,963.683L377.832,963.683L377.832,1007.35ZM1167.14,1007.35L1177.75,1007.35L1181.38,998.101L1198.35,998.101L1202.11,1007.35L1212.97,1007.35L1193.97,963.683L1186.01,963.683L1167.14,1007.35ZM154.413,1007.35L164.036,1007.35L164.036,972.193L176.496,972.193L176.496,963.683L141.953,963.683L141.953,972.193L154.413,972.193L154.413,1007.35ZM715.118,1007.35L745.898,1007.35L745.898,998.471L724.74,998.471L724.74,989.588L743.678,989.588L743.678,980.706L724.74,980.706L724.74,972.565L744.788,972.565L744.788,963.683L715.118,963.683L715.118,1007.35ZM470.727,1007.35L501.507,1007.35L501.507,998.471L480.349,998.471L480.349,989.588L499.287,989.588L499.287,980.706L480.349,980.706L480.349,972.565L500.397,972.565L500.397,963.683L470.727,963.683L470.727,1007.35ZM1100.02,1007.35L1130.8,1007.35L1130.8,998.471L1109.65,998.471L1109.65,989.588L1128.58,989.588L1128.58,980.706L1109.65,980.706L1109.65,972.565L1129.69,972.565L1129.69,963.683L1100.02,963.683L1100.02,1007.35ZM1138.88,1007.35L1166.33,1007.35L1166.33,998.471L1148.51,998.471L1148.51,963.683L1138.88,963.683L1138.88,1007.35ZM812.331,1007.35L821.953,1007.35L821.953,972.193L834.415,972.193L834.415,963.683L799.871,963.683L799.871,972.193L812.331,972.193L812.331,1007.35ZM1256.58,963.681L1246.95,963.681L1246.95,1007.35L1256.58,1007.35L1256.58,963.681ZM848.786,963.681L839.163,963.681L839.163,1007.35L848.786,1007.35L848.786,963.681ZM1272.99,985.518C1272.99,977.375 1278.35,971.453 1286.56,971.453C1294.76,971.453 1300.13,977.375 1300.13,985.518C1300.13,993.66 1294.76,999.581 1286.56,999.581C1278.35,999.581 1272.99,993.66 1272.99,985.518ZM577.377,985.518C577.377,977.375 582.745,971.453 590.95,971.453C599.152,971.453 604.52,977.375 604.52,985.518C604.52,993.66 599.152,999.581 590.95,999.581C582.745,999.581 577.377,993.66 577.377,985.518ZM865.195,985.518C865.195,977.375 870.561,971.453 878.766,971.453C886.968,971.453 892.336,977.375 892.336,985.518C892.336,993.66 886.968,999.581 878.766,999.581C870.561,999.581 865.195,993.66 865.195,985.518ZM294.929,972.565L300.604,972.565C308.746,972.565 315.592,976.573 315.592,985.148C315.592,995.078 308.869,998.471 299.924,998.471L294.929,998.471L294.929,972.565ZM355.564,989.958L344.892,989.958L350.197,976.388L355.564,989.958ZM1195.08,989.958L1184.41,989.958L1189.71,976.388L1195.08,989.958ZM987.021,971.823L993.311,971.823C996.828,971.823 1000.78,972.503 1000.78,976.883C1000.78,981.633 996.211,981.755 992.696,981.755L987.021,981.755L987.021,971.823ZM335.155,612.678L335.155,491.537L593.477,491.537L593.477,560.282L431.761,560.282L431.761,611.458L547.133,611.458L547.109,611.398L647.971,611.398L718.19,843.114L787.346,611.398L852.275,611.398L852.275,491.537L1110.6,491.537L1110.6,560.282L948.881,560.282L948.881,611.458L1098.89,611.458L1098.89,677.13L948.881,677.13L948.881,740.604L1111.21,740.604L1111.21,611.398L1207.6,611.398L1207.6,854.096L1358.04,854.096L1358.04,933.385L1111.21,933.385L1111.21,813.523L852.275,813.523L852.275,703.054L769.471,933.385L664.994,933.385L598.158,750.834L598.158,813.523L383.412,813.523C385.043,815.468 386.798,817.643 388.678,820.052C395.416,828.692 399.921,835.354 402.19,840.04L448.791,933.385L339.843,933.385L288.35,834.988C281.823,822.249 276.009,813.977 270.901,810.169C263.951,805.191 256.077,802.702 247.282,802.702L238.77,802.702L238.77,933.385L141.953,933.385L141.953,611.398L302.607,611.398C314.593,611.398 325.442,611.824 335.155,612.678ZM238.77,741.863L279.412,741.863C283.809,741.863 292.321,740.398 304.947,737.47C311.33,736.151 316.545,732.785 320.587,727.366C324.629,721.949 326.651,715.725 326.651,708.697C326.651,698.3 323.459,690.321 317.076,684.756C310.691,679.193 298.704,676.411 281.116,676.411L238.77,676.411L238.77,741.863ZM431.761,677.13L431.761,740.604L594.413,740.604L571.175,677.13L431.761,677.13Z" style="fill:white;"/>
            </g>
        </g>
    </g>
</svg>
